<mxfile host="app.diagrams.net" modified="2023-11-17T17:55:54.884Z" agent="Mozilla/5.0 (Windows NT 10.0; Win64; x64) AppleWebKit/537.36 (KHTML, like Gecko) Chrome/119.0.0.0 Safari/537.36" etag="RZY0GB2Z3UOJIeRZKCq2" version="22.1.3" type="device">
  <diagram name="Page-1" id="aaHlp559UeUDSrjoUWPf">
    <mxGraphModel dx="1050" dy="1634" grid="1" gridSize="10" guides="1" tooltips="1" connect="1" arrows="1" fold="1" page="1" pageScale="1" pageWidth="850" pageHeight="1100" math="0" shadow="0">
      <root>
        <mxCell id="0" />
        <mxCell id="1" parent="0" />
        <mxCell id="zYc2Jy9RmcQ4_rEFIINo-1" value="Medical Receptionist" style="shape=umlActor;verticalLabelPosition=bottom;verticalAlign=top;html=1;outlineConnect=0;" vertex="1" parent="1">
          <mxGeometry x="200" y="-500" width="30" height="60" as="geometry" />
        </mxCell>
        <mxCell id="zYc2Jy9RmcQ4_rEFIINo-2" value="Doctor" style="shape=umlActor;verticalLabelPosition=bottom;verticalAlign=top;html=1;outlineConnect=0;" vertex="1" parent="1">
          <mxGeometry x="560" y="-345" width="30" height="60" as="geometry" />
        </mxCell>
        <mxCell id="zYc2Jy9RmcQ4_rEFIINo-3" value="Manager" style="shape=umlActor;verticalLabelPosition=bottom;verticalAlign=top;html=1;outlineConnect=0;" vertex="1" parent="1">
          <mxGeometry x="560" y="-500" width="30" height="60" as="geometry" />
        </mxCell>
        <mxCell id="zYc2Jy9RmcQ4_rEFIINo-4" value="Nurse" style="shape=umlActor;verticalLabelPosition=bottom;verticalAlign=top;html=1;outlineConnect=0;" vertex="1" parent="1">
          <mxGeometry x="200" y="-290" width="30" height="60" as="geometry" />
        </mxCell>
        <mxCell id="zYc2Jy9RmcQ4_rEFIINo-6" value="Register patient" style="ellipse;whiteSpace=wrap;html=1;" vertex="1" parent="1">
          <mxGeometry x="330" y="-530" width="90" height="50" as="geometry" />
        </mxCell>
        <mxCell id="zYc2Jy9RmcQ4_rEFIINo-7" value="view personal info" style="ellipse;whiteSpace=wrap;html=1;" vertex="1" parent="1">
          <mxGeometry x="330" y="-440" width="90" height="50" as="geometry" />
        </mxCell>
        <mxCell id="zYc2Jy9RmcQ4_rEFIINo-8" value="view record" style="ellipse;whiteSpace=wrap;html=1;" vertex="1" parent="1">
          <mxGeometry x="327.5" y="-340" width="95" height="50" as="geometry" />
        </mxCell>
        <mxCell id="zYc2Jy9RmcQ4_rEFIINo-9" value="Edit record" style="ellipse;whiteSpace=wrap;html=1;" vertex="1" parent="1">
          <mxGeometry x="327.5" y="-250" width="95" height="50" as="geometry" />
        </mxCell>
        <mxCell id="zYc2Jy9RmcQ4_rEFIINo-10" value="Setup&lt;br&gt;consultation" style="ellipse;whiteSpace=wrap;html=1;" vertex="1" parent="1">
          <mxGeometry x="327.5" y="-160" width="95" height="50" as="geometry" />
        </mxCell>
        <mxCell id="zYc2Jy9RmcQ4_rEFIINo-11" value="Export statistics" style="ellipse;whiteSpace=wrap;html=1;" vertex="1" parent="1">
          <mxGeometry x="670" y="-495" width="90" height="50" as="geometry" />
        </mxCell>
        <mxCell id="zYc2Jy9RmcQ4_rEFIINo-12" value="Generate report" style="ellipse;whiteSpace=wrap;html=1;" vertex="1" parent="1">
          <mxGeometry x="672.5" y="-340" width="85" height="50" as="geometry" />
        </mxCell>
        <mxCell id="zYc2Jy9RmcQ4_rEFIINo-15" value="" style="endArrow=none;html=1;rounded=0;entryX=0.627;entryY=0.327;entryDx=0;entryDy=0;entryPerimeter=0;exitX=0;exitY=0.5;exitDx=0;exitDy=0;" edge="1" parent="1" source="zYc2Jy9RmcQ4_rEFIINo-6" target="zYc2Jy9RmcQ4_rEFIINo-1">
          <mxGeometry width="50" height="50" relative="1" as="geometry">
            <mxPoint x="440" y="-270" as="sourcePoint" />
            <mxPoint x="490" y="-320" as="targetPoint" />
          </mxGeometry>
        </mxCell>
        <mxCell id="zYc2Jy9RmcQ4_rEFIINo-16" value="" style="endArrow=none;html=1;rounded=0;entryX=0;entryY=0;entryDx=0;entryDy=0;" edge="1" parent="1" source="zYc2Jy9RmcQ4_rEFIINo-1" target="zYc2Jy9RmcQ4_rEFIINo-7">
          <mxGeometry width="50" height="50" relative="1" as="geometry">
            <mxPoint x="440" y="-270" as="sourcePoint" />
            <mxPoint x="490" y="-320" as="targetPoint" />
          </mxGeometry>
        </mxCell>
        <mxCell id="zYc2Jy9RmcQ4_rEFIINo-19" value="" style="endArrow=none;html=1;rounded=0;entryX=0;entryY=1;entryDx=0;entryDy=0;entryPerimeter=0;exitX=1;exitY=0.5;exitDx=0;exitDy=0;" edge="1" parent="1" source="zYc2Jy9RmcQ4_rEFIINo-7" target="zYc2Jy9RmcQ4_rEFIINo-3">
          <mxGeometry width="50" height="50" relative="1" as="geometry">
            <mxPoint x="440" y="-270" as="sourcePoint" />
            <mxPoint x="490" y="-320" as="targetPoint" />
          </mxGeometry>
        </mxCell>
        <mxCell id="zYc2Jy9RmcQ4_rEFIINo-20" value="" style="endArrow=none;html=1;rounded=0;entryX=0;entryY=1;entryDx=0;entryDy=0;exitX=1;exitY=0.3333333333333333;exitDx=0;exitDy=0;exitPerimeter=0;" edge="1" parent="1" source="zYc2Jy9RmcQ4_rEFIINo-3" target="zYc2Jy9RmcQ4_rEFIINo-11">
          <mxGeometry width="50" height="50" relative="1" as="geometry">
            <mxPoint x="440" y="-270" as="sourcePoint" />
            <mxPoint x="490" y="-320" as="targetPoint" />
          </mxGeometry>
        </mxCell>
        <mxCell id="zYc2Jy9RmcQ4_rEFIINo-21" value="" style="endArrow=none;html=1;rounded=0;entryX=0;entryY=0.5;entryDx=0;entryDy=0;exitX=1;exitY=1;exitDx=0;exitDy=0;exitPerimeter=0;" edge="1" parent="1" source="zYc2Jy9RmcQ4_rEFIINo-2" target="zYc2Jy9RmcQ4_rEFIINo-12">
          <mxGeometry width="50" height="50" relative="1" as="geometry">
            <mxPoint x="440" y="-270" as="sourcePoint" />
            <mxPoint x="490" y="-320" as="targetPoint" />
          </mxGeometry>
        </mxCell>
        <mxCell id="zYc2Jy9RmcQ4_rEFIINo-22" value="" style="endArrow=none;html=1;rounded=0;entryX=0.5;entryY=0;entryDx=0;entryDy=0;exitX=1;exitY=1;exitDx=0;exitDy=0;exitPerimeter=0;" edge="1" parent="1" source="zYc2Jy9RmcQ4_rEFIINo-3" target="zYc2Jy9RmcQ4_rEFIINo-12">
          <mxGeometry width="50" height="50" relative="1" as="geometry">
            <mxPoint x="440" y="-270" as="sourcePoint" />
            <mxPoint x="490" y="-320" as="targetPoint" />
          </mxGeometry>
        </mxCell>
        <mxCell id="zYc2Jy9RmcQ4_rEFIINo-23" value="" style="endArrow=none;html=1;rounded=0;entryX=0;entryY=0.3333333333333333;entryDx=0;entryDy=0;entryPerimeter=0;exitX=1;exitY=0;exitDx=0;exitDy=0;" edge="1" parent="1" source="zYc2Jy9RmcQ4_rEFIINo-8" target="zYc2Jy9RmcQ4_rEFIINo-2">
          <mxGeometry width="50" height="50" relative="1" as="geometry">
            <mxPoint x="440" y="-270" as="sourcePoint" />
            <mxPoint x="490" y="-320" as="targetPoint" />
          </mxGeometry>
        </mxCell>
        <mxCell id="zYc2Jy9RmcQ4_rEFIINo-24" value="" style="endArrow=none;html=1;rounded=0;entryX=0.5;entryY=0.5;entryDx=0;entryDy=0;entryPerimeter=0;exitX=0.995;exitY=0.336;exitDx=0;exitDy=0;exitPerimeter=0;" edge="1" parent="1" source="zYc2Jy9RmcQ4_rEFIINo-9" target="zYc2Jy9RmcQ4_rEFIINo-2">
          <mxGeometry width="50" height="50" relative="1" as="geometry">
            <mxPoint x="440" y="-270" as="sourcePoint" />
            <mxPoint x="490" y="-320" as="targetPoint" />
          </mxGeometry>
        </mxCell>
        <mxCell id="zYc2Jy9RmcQ4_rEFIINo-25" value="" style="endArrow=none;html=1;rounded=0;entryX=0;entryY=1;entryDx=0;entryDy=0;entryPerimeter=0;exitX=1;exitY=0;exitDx=0;exitDy=0;" edge="1" parent="1" source="zYc2Jy9RmcQ4_rEFIINo-10" target="zYc2Jy9RmcQ4_rEFIINo-2">
          <mxGeometry width="50" height="50" relative="1" as="geometry">
            <mxPoint x="440" y="-270" as="sourcePoint" />
            <mxPoint x="490" y="-320" as="targetPoint" />
          </mxGeometry>
        </mxCell>
        <mxCell id="zYc2Jy9RmcQ4_rEFIINo-26" value="" style="endArrow=none;html=1;rounded=0;exitX=1;exitY=1;exitDx=0;exitDy=0;exitPerimeter=0;entryX=0;entryY=0.5;entryDx=0;entryDy=0;" edge="1" parent="1" source="zYc2Jy9RmcQ4_rEFIINo-4" target="zYc2Jy9RmcQ4_rEFIINo-9">
          <mxGeometry width="50" height="50" relative="1" as="geometry">
            <mxPoint x="440" y="-270" as="sourcePoint" />
            <mxPoint x="490" y="-320" as="targetPoint" />
          </mxGeometry>
        </mxCell>
        <mxCell id="zYc2Jy9RmcQ4_rEFIINo-27" value="" style="endArrow=none;html=1;rounded=0;exitX=0.5;exitY=0;exitDx=0;exitDy=0;exitPerimeter=0;entryX=0;entryY=0.5;entryDx=0;entryDy=0;" edge="1" parent="1" source="zYc2Jy9RmcQ4_rEFIINo-4" target="zYc2Jy9RmcQ4_rEFIINo-8">
          <mxGeometry width="50" height="50" relative="1" as="geometry">
            <mxPoint x="440" y="-270" as="sourcePoint" />
            <mxPoint x="490" y="-320" as="targetPoint" />
          </mxGeometry>
        </mxCell>
      </root>
    </mxGraphModel>
  </diagram>
</mxfile>
